/* XPM */
static char * c_xpm[] = {
"32 32 872 2",
"  	c #6F2068",
". 	c #6A006C",
"+ 	c #450045",
"@ 	c #480048",
"# 	c #6D006F",
"$ 	c #6E0070",
"% 	c #59005B",
"& 	c #410041",
"* 	c #400040",
"= 	c #510052",
"- 	c #7D097E",
"; 	c #6D3157",
"> 	c #682E55",
", 	c #580758",
"' 	c #420042",
") 	c #4C004C",
"! 	c #830083",
"~ 	c #6F0071",
"{ 	c #640065",
"] 	c #470047",
"^ 	c #4F004F",
"/ 	c #6A006B",
"( 	c #69245C",
"_ 	c #633244",
": 	c #63402F",
"< 	c #791F72",
"[ 	c #540054",
"} 	c #630065",
"| 	c #67006A",
"1 	c #610063",
"2 	c #4A004A",
"3 	c #700071",
"4 	c #863075",
"5 	c #6B394A",
"6 	c #662E54",
"7 	c #602B4E",
"8 	c #4A0748",
"9 	c #540454",
"0 	c #560056",
"a 	c #770079",
"b 	c #7E007F",
"c 	c #720075",
"d 	c #640765",
"e 	c #52084F",
"f 	c #470745",
"g 	c #480647",
"h 	c #470546",
"i 	c #550055",
"j 	c #7D2472",
"k 	c #6D472D",
"l 	c #664424",
"m 	c #623B37",
"n 	c #712C61",
"o 	c #66275B",
"p 	c #5F0061",
"q 	c #640066",
"r 	c #710071",
"s 	c #6C046B",
"t 	c #650066",
"u 	c #5D005E",
"v 	c #600061",
"w 	c #7C047C",
"x 	c #700471",
"y 	c #770777",
"z 	c #602C4D",
"A 	c #59214B",
"B 	c #634227",
"C 	c #6A384B",
"D 	c #6D046E",
"E 	c #600261",
"F 	c #6A1B66",
"G 	c #592C44",
"H 	c #644228",
"I 	c #674426",
"J 	c #5F4024",
"K 	c #573C21",
"L 	c #4D3820",
"M 	c #4F1C45",
"N 	c #600062",
"O 	c #78246D",
"P 	c #674526",
"Q 	c #562648",
"R 	c #68285C",
"S 	c #7C0A7C",
"T 	c #6D2A5F",
"U 	c #730075",
"V 	c #770778",
"W 	c #772F64",
"X 	c #7D2671",
"Y 	c #6A2D58",
"Z 	c #720074",
"` 	c #5F0060",
" .	c #660066",
"..	c #68056A",
"+.	c #522543",
"@.	c #634228",
"#.	c #5D3738",
"$.	c #5A333B",
"%.	c #6D096E",
"&.	c #4F2D36",
"*.	c #664426",
"=.	c #714B27",
"-.	c #704A26",
";.	c #614321",
">.	c #513A1E",
",.	c #4C312A",
"'.	c #502541",
").	c #513824",
"!.	c #511A4A",
"~.	c #730972",
"{.	c #64422B",
"].	c #67245D",
"^.	c #5E2750",
"/.	c #6D076E",
"(.	c #612A51",
"_.	c #783164",
":.	c #704A27",
"<.	c #614226",
"[.	c #602A52",
"}.	c #5A005B",
"|.	c #5F045F",
"1.	c #630763",
"2.	c #5D065D",
"3.	c #620064",
"4.	c #6A076D",
"5.	c #5D2B4B",
"6.	c #5D3D2C",
"7.	c #730A72",
"8.	c #64225D",
"9.	c #671A63",
"0.	c #5D3F23",
"a.	c #6F4829",
"b.	c #7C4F2B",
"c.	c #4A243B",
"d.	c #582846",
"e.	c #750E74",
"f.	c #5C2A4B",
"g.	c #4F2540",
"h.	c #5B075A",
"i.	c #583C26",
"j.	c #602457",
"k.	c #542743",
"l.	c #580457",
"m.	c #5B1F54",
"n.	c #800081",
"o.	c #883474",
"p.	c #614222",
"q.	c #523B20",
"r.	c #5B2651",
"s.	c #630464",
"t.	c #653843",
"u.	c #644229",
"v.	c #5B3D29",
"w.	c #5F065F",
"x.	c #5D035E",
"y.	c #511B49",
"z.	c #58264C",
"A.	c #730074",
"B.	c #5A1E54",
"C.	c #48223A",
"D.	c #583C25",
"E.	c #753A52",
"F.	c #6F4925",
"G.	c #5F4123",
"H.	c #513822",
"I.	c #5E1958",
"J.	c #70066F",
"K.	c #65324D",
"L.	c #5A343D",
"M.	c #483226",
"N.	c #5B045B",
"O.	c #542A3F",
"P.	c #532148",
"Q.	c #540354",
"R.	c #570456",
"S.	c #5D1E57",
"T.	c #8E098C",
"U.	c #7A3365",
"V.	c #5D3E29",
"W.	c #522347",
"X.	c #4D1F43",
"Y.	c #5D2053",
"Z.	c #674428",
"`.	c #692360",
" +	c #6C374F",
".+	c #760876",
"++	c #500050",
"@+	c #470247",
"#+	c #4E1449",
"$+	c #550056",
"%+	c #510251",
"&+	c #520850",
"*+	c #513729",
"=+	c #76345F",
"-+	c #5F4025",
";+	c #5F1F56",
">+	c #6C1E66",
",+	c #503529",
"'+	c #72305E",
")+	c #4D3624",
"!+	c #5C2F47",
"~+	c #493327",
"{+	c #700472",
"]+	c #571B4E",
"^+	c #4D1547",
"/+	c #4B004B",
"(+	c #580058",
"_+	c #640265",
":+	c #793164",
"<+	c #673946",
"[+	c #7F0B7F",
"}+	c #7C067D",
"|+	c #431C39",
"1+	c #572D3D",
"2+	c #64422A",
"3+	c #6F076E",
"4+	c #612952",
"5+	c #6C076C",
"6+	c #4F064E",
"7+	c #4C273A",
"8+	c #551B4E",
"9+	c #700372",
"0+	c #700072",
"a+	c #4F054E",
"b+	c #502E39",
"c+	c #773162",
"d+	c #642B52",
"e+	c #661E60",
"f+	c #733060",
"g+	c #684528",
"h+	c #583D22",
"i+	c #681965",
"j+	c #532C42",
"k+	c #691866",
"l+	c #7F0C7F",
"m+	c #810081",
"n+	c #610363",
"o+	c #3F1C34",
"p+	c #602F45",
"q+	c #6D295F",
"r+	c #630664",
"s+	c #512146",
"t+	c #540952",
"u+	c #683D37",
"v+	c #744B27",
"w+	c #694526",
"x+	c #582A45",
"y+	c #4A0549",
"z+	c #57224E",
"A+	c #74216B",
"B+	c #6D2B5E",
"C+	c #644323",
"D+	c #6A4723",
"E+	c #614220",
"F+	c #593E1E",
"G+	c #5C2155",
"H+	c #6A1A66",
"I+	c #483228",
"J+	c #541550",
"K+	c #490049",
"L+	c #4E004E",
"M+	c #590059",
"N+	c #5E0060",
"O+	c #6C2164",
"P+	c #7E047E",
"Q+	c #6C006D",
"R+	c #690369",
"S+	c #461B3E",
"T+	c #690469",
"U+	c #7D037D",
"V+	c #6D006E",
"W+	c #530253",
"X+	c #6E0D6B",
"Y+	c #743C51",
"Z+	c #872E79",
"`+	c #792F68",
" @	c #5F3D2E",
".@	c #502442",
"+@	c #50064E",
"@@	c #5A1F54",
"#@	c #69036A",
"$@	c #573338",
"%@	c #654422",
"&@	c #4E371F",
"*@	c #502F35",
"=@	c #503032",
"-@	c #582052",
";@	c #6F0070",
">@	c #5B2054",
",@	c #4A0649",
"'@	c #530053",
")@	c #5C005D",
"!@	c #712467",
"~@	c #6D046F",
"{@	c #6C026E",
"]@	c #680069",
"^@	c #630064",
"/@	c #680967",
"(@	c #763C53",
"_@	c #9D139B",
":@	c #87237D",
"<@	c #66314F",
"[@	c #5E3146",
"}@	c #48341E",
"|@	c #5B2352",
"1@	c #663747",
"2@	c #512049",
"3@	c #620363",
"4@	c #57224C",
"5@	c #581455",
"6@	c #57254C",
"7@	c #5C065C",
"8@	c #722666",
"9@	c #6E3454",
"0@	c #654327",
"a@	c #68364C",
"b@	c #640365",
"c@	c #750076",
"d@	c #740075",
"e@	c #4D1F3F",
"f@	c #542644",
"g@	c #670269",
"h@	c #783263",
"i@	c #704044",
"j@	c #733C50",
"k@	c #5E3F27",
"l@	c #5B1955",
"m@	c #63185F",
"n@	c #472A30",
"o@	c #4F391E",
"p@	c #5A3D26",
"q@	c #590957",
"r@	c #671A64",
"s@	c #692460",
"t@	c #5B005B",
"u@	c #6D026E",
"v@	c #4C054B",
"w@	c #533927",
"x@	c #77345E",
"y@	c #754937",
"z@	c #6D4729",
"A@	c #582C42",
"B@	c #4C3623",
"C@	c #681766",
"D@	c #820082",
"E@	c #6E036F",
"F@	c #4D0F48",
"G@	c #613640",
"H@	c #513037",
"I@	c #630764",
"J@	c #783362",
"K@	c #704045",
"L@	c #6C394C",
"M@	c #4B3228",
"N@	c #720772",
"O@	c #522E3B",
"P@	c #443419",
"Q@	c #4B361F",
"R@	c #533B20",
"S@	c #5A323F",
"T@	c #6A1667",
"U@	c #6C146B",
"V@	c #760278",
"W@	c #780079",
"X@	c #670069",
"Y@	c #5A085A",
"Z@	c #6A462A",
"`@	c #80405C",
" #	c #7E0E7C",
".#	c #6F2067",
"+#	c #6F006F",
"@#	c #602952",
"##	c #5A284C",
"$#	c #630365",
"%#	c #522F39",
"&#	c #614029",
"*#	c #5F2350",
"=#	c #551F4D",
"-#	c #5D155B",
";#	c #6D3355",
">#	c #620B61",
",#	c #6D3059",
"'#	c #732E62",
")#	c #4B3424",
"!#	c #4A3620",
"~#	c #651F5C",
"{#	c #6F2963",
"]#	c #57333C",
"^#	c #463223",
"/#	c #681666",
"(#	c #650067",
"_#	c #540752",
":#	c #480447",
"<#	c #78266C",
"[#	c #734931",
"}#	c #873770",
"|#	c #723358",
"1#	c #5F095E",
"2#	c #660068",
"3#	c #6E2F5B",
"4#	c #662D53",
"5#	c #5E005F",
"6#	c #510350",
"7#	c #591954",
"8#	c #612854",
"9#	c #750B75",
"0#	c #6B066C",
"a#	c #520053",
"b#	c #740474",
"c#	c #86217E",
"d#	c #990099",
"e#	c #8F098E",
"f#	c #752B67",
"g#	c #56224C",
"h#	c #771C72",
"i#	c #622456",
"j#	c #69275D",
"k#	c #602B50",
"l#	c #4E3A1A",
"m#	c #4E2142",
"n#	c #561F4A",
"o#	c #5C3D2B",
"p#	c #5B1E51",
"q#	c #7F326B",
"r#	c #723B51",
"s#	c #8D2F80",
"t#	c #714638",
"u#	c #71325A",
"v#	c #652B55",
"w#	c #692B5A",
"x#	c #80167E",
"y#	c #6C2762",
"z#	c #572D43",
"A#	c #47203A",
"B#	c #750C75",
"C#	c #883288",
"D#	c #7C457C",
"E#	c #6E456E",
"F#	c #5D504C",
"G#	c #5E495A",
"H#	c #774C76",
"I#	c #5F505B",
"J#	c #62525B",
"K#	c #695B61",
"L#	c #655E57",
"M#	c #5A2B54",
"N#	c #53174E",
"O#	c #572C3F",
"P#	c #7A2171",
"Q#	c #7D007E",
"R#	c #7F0080",
"S#	c #990C98",
"T#	c #7F0081",
"U#	c #960F94",
"V#	c #644032",
"W#	c #67285B",
"X#	c #662859",
"Y#	c #620063",
"Z#	c #A000A0",
"`#	c #94208E",
" $	c #5F3E30",
".$	c #66364A",
"+$	c #5B1F56",
"@$	c #745F74",
"#$	c #535053",
"$$	c #3F3F3F",
"%$	c #3E3E3E",
"&$	c #404040",
"*$	c #494949",
"=$	c #4C4C4C",
"-$	c #525252",
";$	c #575757",
">$	c #636163",
",$	c #533153",
"'$	c #4E2540",
")$	c #710573",
"!$	c #7A3067",
"~$	c #8E098D",
"{$	c #711B6D",
"]$	c #503A21",
"^$	c #6B006B",
"/$	c #732F61",
"($	c #622A54",
"_$	c #7B007C",
":$	c #720072",
"<$	c #940394",
"[$	c #643549",
"}$	c #4C3823",
"|$	c #632858",
"1$	c #742D62",
"2$	c #746660",
"3$	c #787676",
"4$	c #777675",
"5$	c #6C6A69",
"6$	c #656463",
"7$	c #615F5F",
"8$	c #5B5A59",
"9$	c #555454",
"0$	c #4E4D4C",
"a$	c #4B4A4A",
"b$	c #3F3F3E",
"c$	c #383736",
"d$	c #402B32",
"e$	c #4C253D",
"f$	c #570556",
"g$	c #5B005C",
"h$	c #6B2A5C",
"i$	c #780778",
"j$	c #561B50",
"k$	c #4F3A1C",
"l$	c #65255C",
"m$	c #5E1B5A",
"n$	c #820083",
"o$	c #66265C",
"p$	c #4A3622",
"q$	c #58284A",
"r$	c #75453B",
"s$	c #885634",
"t$	c #935E3B",
"u$	c #885837",
"v$	c #885736",
"w$	c #774D2F",
"x$	c #7D5031",
"y$	c #764C2D",
"z$	c #5C3E22",
"A$	c #553B1F",
"B$	c #4D371C",
"C$	c #49351A",
"D$	c #48341B",
"E$	c #4A2D32",
"F$	c #50054F",
"G$	c #530054",
"H$	c #552842",
"I$	c #5A065A",
"J$	c #6A006E",
"K$	c #620862",
"L$	c #644327",
"M$	c #5A005A",
"N$	c #6C026D",
"O$	c #510051",
"P$	c #68006B",
"Q$	c #6D086E",
"R$	c #542547",
"S$	c #521F48",
"T$	c #7F5133",
"U$	c #8C5A38",
"V$	c #98603A",
"W$	c #9D633C",
"X$	c #9C613B",
"Y$	c #80512E",
"Z$	c #925A37",
"`$	c #8A5532",
" %	c #754A29",
".%	c #654122",
"+%	c #6D4525",
"@%	c #593C1E",
"#%	c #5E3F22",
"$%	c #48361D",
"%%	c #453728",
"&%	c #5C0B5B",
"*%	c #760478",
"=%	c #5E1A58",
"-%	c #4E034D",
";%	c #4C004D",
">%	c #4D084B",
",%	c #634225",
"'%	c #6D086D",
")%	c #6C3057",
"!%	c #7D017E",
"~%	c #810B80",
"{%	c #6A346A",
"]%	c #666463",
"^%	c #73706E",
"/%	c #8B7064",
"(%	c #8B6C5C",
"_%	c #846557",
":%	c #795E51",
"<%	c #7B5D4F",
"[%	c #73594C",
"}%	c #665044",
"|%	c #5D4C42",
"1%	c #614B3E",
"2%	c #514238",
"3%	c #403E3D",
"4%	c #393837",
"5%	c #3D3427",
"6%	c #5C3F25",
"7%	c #6C384D",
"8%	c #7A1D74",
"9%	c #730076",
"0%	c #430641",
"a%	c #4B381C",
"b%	c #6E2D5D",
"c%	c #652F52",
"d%	c #5F2850",
"e%	c #780479",
"f%	c #7D2572",
"g%	c #6C4531",
"h%	c #5F4534",
"i%	c #655B56",
"j%	c #686564",
"k%	c #706E6E",
"l%	c #656362",
"m%	c #636160",
"n%	c #585757",
"o%	c #585656",
"p%	c #4C4A4A",
"q%	c #4B4948",
"r%	c #494848",
"s%	c #40403F",
"t%	c #373635",
"u%	c #333130",
"v%	c #433421",
"w%	c #614126",
"x%	c #4F2B38",
"y%	c #602556",
"z%	c #6C006E",
"A%	c #4F044F",
"B%	c #3F2E1D",
"C%	c #68275B",
"D%	c #6D0C6D",
"E%	c #79007A",
"F%	c #762D65",
"G%	c #713C4D",
"H%	c #5B2F41",
"I%	c #694528",
"J%	c #815230",
"K%	c #98613C",
"L%	c #895837",
"M%	c #905C39",
"N%	c #895735",
"O%	c #744B2D",
"P%	c #794D2F",
"Q%	c #724A2A",
"R%	c #684426",
"S%	c #543920",
"T%	c #5B3D21",
"U%	c #523A1E",
"V%	c #4C361C",
"W%	c #48351A",
"X%	c #4B3325",
"Y%	c #68275D",
"Z%	c #480846",
"`%	c #5D055E",
" &	c #7D037E",
".&	c #6C036D",
"+&	c #3E1D33",
"@&	c #522445",
"#&	c #760677",
"$&	c #780379",
"%&	c #810082",
"&&	c #651A60",
"*&	c #6E076D",
"=&	c #5D015E",
"-&	c #753756",
";&	c #835330",
">&	c #9F653C",
",&	c #9A613A",
"'&	c #A0653D",
")&	c #9C613A",
"!&	c #895633",
"~&	c #8A5633",
"{&	c #83522F",
"]&	c #734928",
"^&	c #634022",
"/&	c #704626",
"(&	c #614021",
"_&	c #4E371A",
":&	c #493519",
"<&	c #4A3322",
"[&	c #600961",
"}&	c #4F1B46",
"|&	c #543335",
"1&	c #783B59",
"2&	c #780579",
"3&	c #720274",
"4&	c #4D1349",
"5&	c #4A1F3E",
"6&	c #600462",
"7&	c #5C005E",
"8&	c #7E3764",
"9&	c #875532",
"0&	c #49341C",
"a&	c #662B55",
"b&	c #69384A",
"c&	c #6A4726",
"d&	c #604127",
"e&	c #640665",
"f&	c #430043",
"g&	c #3F1B35",
"h&	c #480348",
"i&	c #4D004D",
"j&	c #550057",
"k&	c #61424C",
"l&	c #825537",
"m&	c #9E6540",
"n&	c #99613A",
"o&	c #865431",
"p&	c #453832",
"q&	c #6D0F6C",
"r&	c #6B2D5A",
"s&	c #5B2A4B",
"t&	c #55392B",
"u&	c #6E066F",
"v&	c #7B067B",
"w&	c #591656",
"x&	c #460046",
"y&	c #3F113A",
"z&	c #490248",
"A&	c #6F096D",
"B&	c #70096E",
"C&	c #680468",
"D&	c #5A435B",
"E&	c #727170",
"F&	c #777371",
"G&	c #896858",
"H&	c #866657",
"I&	c #775D51",
"J&	c #785C4E",
"K&	c #564438",
"L&	c #443F3A",
"M&	c #393838",
"N&	c #403831",
"O&	c #513927",
"P&	c #54372C",
"Q&	c #7A0A7A",
"R&	c #5E2555",
"S&	c #721E6C",
"T&	c #5D3C2F",
"U&	c #533137",
"V&	c #4D2042",
"W&	c #480247",
"X&	c #840084",
"Y&	c #82207A",
"Z&	c #684133",
"`&	c #634030",
" *	c #6D394E",
".*	c #672766",
"+*	c #5D534F",
"@*	c #646261",
"#*	c #6A6867",
"$*	c #636261",
"%*	c #626160",
"&*	c #575655",
"**	c #4A4948",
"=*	c #41403F",
"-*	c #403F3E",
";*	c #3B3734",
">*	c #362E26",
",*	c #423123",
"'*	c #462633",
")*	c #4F2E35",
"!*	c #630465",
"~*	c #511F47",
"{*	c #5E2950",
"]*	c #4C381E",
"^*	c #50074E",
"/*	c #8E038D",
"(*	c #732D62",
"_*	c #6C126A",
":*	c #710972",
"<*	c #5E3246",
"[*	c #640F62",
"}*	c #794D30",
"|*	c #7C4F30",
"1*	c #845433",
"2*	c #865635",
"3*	c #784D2F",
"4*	c #664327",
"5*	c #6D482A",
"6*	c #6A4628",
"7*	c #624225",
"8*	c #5E3F23",
"9*	c #4B361C",
"0*	c #4A351B",
"a*	c #483419",
"b*	c #45311E",
"c*	c #4D2938",
"d*	c #4F2E36",
"e*	c #630462",
"f*	c #4F1F45",
"g*	c #5D045D",
"h*	c #561D4D",
"i*	c #531F48",
"j*	c #4C024C",
"k*	c #4D034D",
"l*	c #632E4D",
"m*	c #6E394E",
"n*	c #652858",
"o*	c #642659",
"p*	c #720574",
"q*	c #63255A",
"r*	c #6D0D6E",
"s*	c #5E463D",
"t*	c #865739",
"u*	c #8B5936",
"v*	c #8D5835",
"w*	c #8C5734",
"x*	c #6F4727",
"y*	c #7D502D",
"z*	c #7C4F2C",
"A*	c #674323",
"B*	c #624021",
"C*	c #6A4424",
"D*	c #4B361A",
"E*	c #581854",
"F*	c #642954",
"G*	c #6A2362",
"H*	c #4A2837",
"I*	c #4E2042",
"J*	c #663B39",
"K*	c #6C4728",
"L*	c #683849",
"M*	c #45282F",
"N*	c #621A5C",
"O*	c #663C3B",
"P*	c #6B2E58",
"Q*	c #6D2C5C",
"R*	c #6D066E",
"S*	c #5A2B4A",
"T*	c #47341E",
"U*	c #493423",
"V*	c #50463A",
"W*	c #757372",
"X*	c #7B6E68",
"Y*	c #7D675D",
"Z*	c #7D6459",
"`*	c #6B5A51",
" =	c #6D584C",
".=	c #685244",
"+=	c #5A483E",
"@=	c #594539",
"#=	c #534032",
"$=	c #41362B",
"%=	c #372F22",
"&=	c #51254A",
"*=	c #6F1B6B",
"==	c #4D2E35",
"-=	c #4E3624",
";=	c #4C371B",
">=	c #51391F",
",=	c #573B22",
"'=	c #704926",
")=	c #662D56",
"!=	c #512941",
"~=	c #4C4741",
"{=	c #413228",
"]=	c #552E3E",
"^=	c #5C2252",
"/=	c #453122",
"(=	c #422F20",
"_=	c #49361A",
":=	c #533B1D",
"<=	c #533B1E",
"[=	c #4F4134",
"}=	c #605E5B",
"|=	c #5D5D5D",
"1=	c #5B5B5B",
"2=	c #4E4E4E",
"3=	c #424242",
"4=	c #373737",
"5=	c #313131",
"6=	c #2D2C2C",
"7=	c #332F2A",
"8=	c #49403D",
"9=	c #4B423D",
"0=	c #433724",
"a=	c #4D381B",
"b=	c #583D1E",
"c=	c #593D1E",
"d=	c #413229",
"e=	c #4E4643",
"  . + @ # $ % & * = - ; > , ' * & ) $ ! ~ { ' * * * ] ^ / ( _ _ ",
": < # [ } | 1 2 ) 3 4 5 6 7 [ 8 9 0 a b c d e f g h i } j k l m ",
"n o a p q r s t u v w x y z A B C D E F G H I J K L M N O P Q R ",
"S T U V W X Y $ Z # `  ...+.@.#.$.%.&.*.=.-.;.>.,.'.).!.~.{.].^.",
"/.(.~ _.:.<.[.}.|.1.2.3.4.5.6.7.8.9.0.a.b.=.K c.d.e.f.g.h.i.j.k.",
"l.m.n.o.p.q.r.s.t.u.v.w.x.y.z.A.B.C.D.E.F.G.H.I.J.K.L.M.N.O.P.Q.",
"R.S.T.U.V.W.X.Y.Z.`. +.+++@+#+$+%+&+*+=+-+;+>+,+'+)+!+~+{+]+^+/+",
"(+_+:+<+[+}+|+1+2+3+4+5+6+7+8+9+0+a+b+c+d+e+f+g+h+i+..j+k+1 ) @ ",
"(+} '+l+m+n+o+p+q+r+s+t+u+v+w+x+1 y+z+A+B+C+D+E+F+G+$ H+I+J+K+L+",
"M+N+O+P+Q+R+S+T+U+V+W+X+Y+Z+`+ @.@+@@@#@$@%@&@*@=@-@q ;@>@,@'@)@",
"!@~@q / } $ {@]@^@$+/@(@_@:@<@[@}@!.|@` x+1@2@3@4@5@3.1 6@7@8@9@",
"0@a@b@` c@d@++e@f@g@h@i@j@k@l@m@n@o@p@q@r@s@5@t@u@q i v@w@x@y@z@",
"A@B@C@c D@E@F@G@H@I@J@K@L@M@N@O@P@Q@R@S@T@U@V@W@$ X@] Y@Z@`@ #.#",
"+#@#### $#%#&#*#=#-#j ;#>#,#'#)#!#~#{#]#^#/#(#V+_#:#L+<#[#}#|#1#",
"2#3#4#5#6#7#8#9#0#a#b#c#d#e#f#g#h#i#j#k#l#m#%+n#o#p#~ q#r#s#t#u#",
"a v#w## N+0+x#y#z#A#B#C#D#E#F#G#H#I#J#K#L#M#N#O#P#Q#R#4 S#T#U#V#",
"/ W#X#. Y#Z#`# $.$+$@$#$$$%$&$&$&$*$=$-$;$>$,$'$)$$ d@!$~$X@{$]$",
"^$/$($_$:$<$[$}$|$1$2$3$4$5$6$7$8$9$0$a$b$c$d$e$f$g$` h$i$} j$k$",
"t@l$m$u 3.n$o$p$q$r$s$t$u$v$w$x$y$*.z$A$B$C$D$E$F$G$[ H$I$J$K$L$",
"M$N$(+O$[ P$Q$R$S$T$U$V$W$X$Y$Z$`$ %.%+%@%#%$%%%&%*%a =%-%;%>%,%",
"(+'%)%/.Q+N+!%~%{%]%^%/%(%_%:%<%[%}%|%1%2%3%4%5%6%7%8%9%# L+0%a%",
"0 b%c%d%2#e%f%g%h%i%j%k%l%m%n%o%p%q%r%s%b$t%u%v%w%x%y%Q#Q#z%A%B%",
"0 C%D%j#E%F%G%H%I%J%K%L%M%N%O%P%Q%R%S%T%U%V%W%X%Y%Z%`% &2#(#.&+&",
"++@&#&$&%&&&*&=&-&;&>&,&'&)&!&~&{&]&^&/&(&_&:&<&[&}&|&1&2&c 3&4&",
") 5&6&` # p 7&| 8&;&>&,&'&)&9&~&{&]&^&/&(&_&:&0&a&b&c&d&e&U a >@",
"f&g&h&i&i 1 7&j&k&l&m&n&'&)&o&~&{&]&^&/&(&B$$%p&q&r&s&t&u&v&E@w&",
"x&y&z&0 { A&B&C&D&E&F&/%G&H&I&J&[%}%|%1%K&L&M&N&O&P&Q&R&S&T&U&V&",
"x&W&g$X&Y&Z&`& *.*+*@*#*$*%*n%&*a$**r%=*-*;*>*,*'*)*!*~*5+{*]*^*",
"2 /+} /*(*_*:*<*[*}*|*1*2*3*4*5*6*7*S%8*9*0*a*b*c*d*e*f*g*h*q.i*",
"j*k*l*m*n*o*p*q*r*s*t*u*v*w*x*y*z*A*B*C*_&D*}@E*F*G*H*I*&%J*K*L*",
"M*N*O*P*Q*R*S*T*U*V*W*X*Y*Z*`* =.=+=@=#=$=%=&=*===-=;=>=,='=)=!=",
"~={=]=^=/=(=_=:=<=[=}=|=1=;$2==$3=$$4=5=6=7=8=9=0=a=b=c=c=;=d=e="};
