/* XPM */
static char * e_s_xpm[] = {
"32 32 856 2",
"  	c #6F2068",
". 	c #6A006C",
"+ 	c #450045",
"@ 	c #480048",
"# 	c #6D006F",
"$ 	c #6E0070",
"% 	c #59005B",
"& 	c #410041",
"* 	c #400040",
"= 	c #510052",
"- 	c #7D097E",
"; 	c #6D3157",
"> 	c #682E55",
", 	c #580758",
"' 	c #420042",
") 	c #4C004C",
"! 	c #830083",
"~ 	c #6F0071",
"{ 	c #640065",
"] 	c #470047",
"^ 	c #4F004F",
"/ 	c #6A006B",
"( 	c #69245C",
"_ 	c #633244",
": 	c #63402F",
"< 	c #791F72",
"[ 	c #540054",
"} 	c #630065",
"| 	c #67006A",
"1 	c #610063",
"2 	c #4A004A",
"3 	c #700071",
"4 	c #863075",
"5 	c #6B394A",
"6 	c #662E54",
"7 	c #602B4E",
"8 	c #4A0748",
"9 	c #540454",
"0 	c #560056",
"a 	c #770079",
"b 	c #7E007F",
"c 	c #720075",
"d 	c #640765",
"e 	c #52084F",
"f 	c #470745",
"g 	c #480647",
"h 	c #470546",
"i 	c #550055",
"j 	c #7D2472",
"k 	c #6D472D",
"l 	c #664424",
"m 	c #623B37",
"n 	c #712C61",
"o 	c #66275B",
"p 	c #5F0061",
"q 	c #640066",
"r 	c #710071",
"s 	c #6C046B",
"t 	c #650066",
"u 	c #5D005E",
"v 	c #600061",
"w 	c #7C047C",
"x 	c #700471",
"y 	c #770777",
"z 	c #602C4D",
"A 	c #59214B",
"B 	c #634227",
"C 	c #6A384B",
"D 	c #6D046E",
"E 	c #600261",
"F 	c #6A1B66",
"G 	c #592C44",
"H 	c #644228",
"I 	c #674426",
"J 	c #5F4024",
"K 	c #573C21",
"L 	c #4D3820",
"M 	c #4F1C45",
"N 	c #600062",
"O 	c #78246D",
"P 	c #674526",
"Q 	c #562648",
"R 	c #68285C",
"S 	c #7C0A7C",
"T 	c #6D2A5F",
"U 	c #730075",
"V 	c #770778",
"W 	c #772F64",
"X 	c #7D2671",
"Y 	c #6A2D58",
"Z 	c #720074",
"` 	c #5F0060",
" .	c #660066",
"..	c #68056A",
"+.	c #522543",
"@.	c #634228",
"#.	c #5D3738",
"$.	c #5A333B",
"%.	c #6D096E",
"&.	c #4F2D36",
"*.	c #664426",
"=.	c #714B27",
"-.	c #704A26",
";.	c #614321",
">.	c #513A1E",
",.	c #4C312A",
"'.	c #502541",
").	c #513824",
"!.	c #511A4A",
"~.	c #730972",
"{.	c #64422B",
"].	c #67245D",
"^.	c #5E2750",
"/.	c #6D076E",
"(.	c #612A51",
"_.	c #783164",
":.	c #704A27",
"<.	c #614226",
"[.	c #602A52",
"}.	c #5A005B",
"|.	c #5F045F",
"1.	c #630763",
"2.	c #5D065D",
"3.	c #620064",
"4.	c #6A076D",
"5.	c #5D2B4B",
"6.	c #5D3D2C",
"7.	c #730A72",
"8.	c #64225D",
"9.	c #671A63",
"0.	c #5D3F23",
"a.	c #6F4829",
"b.	c #7C4F2B",
"c.	c #4A243B",
"d.	c #582846",
"e.	c #750E74",
"f.	c #5C2A4B",
"g.	c #4F2540",
"h.	c #5B075A",
"i.	c #583C26",
"j.	c #602457",
"k.	c #542743",
"l.	c #580457",
"m.	c #5B1F54",
"n.	c #800081",
"o.	c #883474",
"p.	c #614222",
"q.	c #523B20",
"r.	c #5B2651",
"s.	c #630464",
"t.	c #653843",
"u.	c #644229",
"v.	c #5B3D29",
"w.	c #5F065F",
"x.	c #5D035E",
"y.	c #511B49",
"z.	c #58264C",
"A.	c #730074",
"B.	c #5A1E54",
"C.	c #48223A",
"D.	c #583C25",
"E.	c #753A52",
"F.	c #6F4925",
"G.	c #5F4123",
"H.	c #513822",
"I.	c #5E1958",
"J.	c #70066F",
"K.	c #65324D",
"L.	c #5A343D",
"M.	c #483226",
"N.	c #5B045B",
"O.	c #542A3F",
"P.	c #532148",
"Q.	c #540354",
"R.	c #570456",
"S.	c #5D1E57",
"T.	c #8E098C",
"U.	c #7A3365",
"V.	c #5D3E29",
"W.	c #522347",
"X.	c #4D1F43",
"Y.	c #5D2053",
"Z.	c #674428",
"`.	c #692360",
" +	c #6C374F",
".+	c #760876",
"++	c #500050",
"@+	c #470247",
"#+	c #4E1449",
"$+	c #550056",
"%+	c #510251",
"&+	c #520850",
"*+	c #513729",
"=+	c #76345F",
"-+	c #5F4025",
";+	c #5F1F56",
">+	c #6C1E66",
",+	c #503529",
"'+	c #72305E",
")+	c #4D3624",
"!+	c #5C2F47",
"~+	c #493327",
"{+	c #700472",
"]+	c #571B4E",
"^+	c #4D1547",
"/+	c #4B004B",
"(+	c #580058",
"_+	c #640265",
":+	c #793164",
"<+	c #673946",
"[+	c #7F0B7F",
"}+	c #7C067D",
"|+	c #431C39",
"1+	c #572D3D",
"2+	c #64422A",
"3+	c #6F076E",
"4+	c #612952",
"5+	c #6C076C",
"6+	c #4F064E",
"7+	c #4C273A",
"8+	c #551B4E",
"9+	c #700372",
"0+	c #700072",
"a+	c #4F054E",
"b+	c #502E39",
"c+	c #773162",
"d+	c #642B52",
"e+	c #661E60",
"f+	c #733060",
"g+	c #684528",
"h+	c #583D22",
"i+	c #681965",
"j+	c #532C42",
"k+	c #691866",
"l+	c #7F0C7F",
"m+	c #810081",
"n+	c #610363",
"o+	c #3F1C34",
"p+	c #602F45",
"q+	c #6D295F",
"r+	c #630664",
"s+	c #512146",
"t+	c #540952",
"u+	c #683D37",
"v+	c #744B27",
"w+	c #694526",
"x+	c #582A45",
"y+	c #4A0549",
"z+	c #57224E",
"A+	c #74216B",
"B+	c #6D2B5E",
"C+	c #644323",
"D+	c #6A4723",
"E+	c #614220",
"F+	c #593E1E",
"G+	c #5C2155",
"H+	c #6A1A66",
"I+	c #483228",
"J+	c #541550",
"K+	c #490049",
"L+	c #4E004E",
"M+	c #590059",
"N+	c #5E0060",
"O+	c #6C2164",
"P+	c #7E047E",
"Q+	c #6C006D",
"R+	c #690369",
"S+	c #461B3E",
"T+	c #690469",
"U+	c #7D037D",
"V+	c #6D006E",
"W+	c #530253",
"X+	c #6E0D6B",
"Y+	c #743C51",
"Z+	c #872E79",
"`+	c #792F68",
" @	c #5F3D2E",
".@	c #502442",
"+@	c #50064E",
"@@	c #5A1F54",
"#@	c #69036A",
"$@	c #573338",
"%@	c #654422",
"&@	c #4E371F",
"*@	c #502F35",
"=@	c #503032",
"-@	c #582052",
";@	c #6F0070",
">@	c #5B2054",
",@	c #4A0649",
"'@	c #530053",
")@	c #5C005D",
"!@	c #712467",
"~@	c #6D046F",
"{@	c #6C026E",
"]@	c #680069",
"^@	c #630064",
"/@	c #680967",
"(@	c #763C53",
"_@	c #9D139B",
":@	c #87237D",
"<@	c #66314F",
"[@	c #5E3146",
"}@	c #48341E",
"|@	c #5B2352",
"1@	c #663747",
"2@	c #512049",
"3@	c #620363",
"4@	c #57224C",
"5@	c #581455",
"6@	c #57254C",
"7@	c #5C065C",
"8@	c #722666",
"9@	c #6E3454",
"0@	c #654327",
"a@	c #68364C",
"b@	c #640365",
"c@	c #750076",
"d@	c #740075",
"e@	c #4D1F3F",
"f@	c #542644",
"g@	c #670269",
"h@	c #783263",
"i@	c #704044",
"j@	c #733C50",
"k@	c #5E3F27",
"l@	c #5B1955",
"m@	c #63185F",
"n@	c #472A30",
"o@	c #4F391E",
"p@	c #5A3D26",
"q@	c #590957",
"r@	c #671A64",
"s@	c #692460",
"t@	c #5B005B",
"u@	c #6D026E",
"v@	c #4C054B",
"w@	c #533927",
"x@	c #77345E",
"y@	c #754937",
"z@	c #6D4729",
"A@	c #582C42",
"B@	c #4C3623",
"C@	c #681766",
"D@	c #820082",
"E@	c #6E036F",
"F@	c #4D0F48",
"G@	c #613640",
"H@	c #513037",
"I@	c #630764",
"J@	c #783362",
"K@	c #704045",
"L@	c #6C394C",
"M@	c #4B3228",
"N@	c #720772",
"O@	c #522E3B",
"P@	c #443419",
"Q@	c #4B361F",
"R@	c #533B20",
"S@	c #5A323F",
"T@	c #6A1667",
"U@	c #6C146B",
"V@	c #760278",
"W@	c #780079",
"X@	c #670069",
"Y@	c #5A085A",
"Z@	c #6A462A",
"`@	c #80405C",
" #	c #7E0E7C",
".#	c #6F2067",
"+#	c #6F006F",
"@#	c #602952",
"##	c #5A284C",
"$#	c #630365",
"%#	c #522F39",
"&#	c #614029",
"*#	c #5F2350",
"=#	c #551F4D",
"-#	c #5D155B",
";#	c #6D3355",
">#	c #620B61",
",#	c #6D3059",
"'#	c #732E62",
")#	c #4B3424",
"!#	c #4A3620",
"~#	c #651F5C",
"{#	c #6F2963",
"]#	c #57333C",
"^#	c #463223",
"/#	c #681666",
"(#	c #650067",
"_#	c #540752",
":#	c #480447",
"<#	c #78266C",
"[#	c #734931",
"}#	c #873770",
"|#	c #723358",
"1#	c #5F095E",
"2#	c #660068",
"3#	c #6E2F5B",
"4#	c #662D53",
"5#	c #5E005F",
"6#	c #510350",
"7#	c #591954",
"8#	c #612854",
"9#	c #750B75",
"0#	c #6B066C",
"a#	c #520053",
"b#	c #740474",
"c#	c #86217E",
"d#	c #990099",
"e#	c #8F098E",
"f#	c #752B67",
"g#	c #56224C",
"h#	c #771C72",
"i#	c #622456",
"j#	c #69275D",
"k#	c #602B50",
"l#	c #4E3A1A",
"m#	c #4E2142",
"n#	c #561F4A",
"o#	c #5C3D2B",
"p#	c #5B1E51",
"q#	c #7F326B",
"r#	c #723B51",
"s#	c #8D2F80",
"t#	c #714638",
"u#	c #71325A",
"v#	c #652B55",
"w#	c #692B5A",
"x#	c #80167E",
"y#	c #6C2762",
"z#	c #572D43",
"A#	c #47203A",
"B#	c #750276",
"C#	c #8F078E",
"D#	c #7E2F6E",
"E#	c #6D2E5B",
"F#	c #55382C",
"G#	c #721770",
"H#	c #79047A",
"I#	c #521E49",
"J#	c #631A5E",
"K#	c #5D2A4C",
"L#	c #582151",
"M#	c #53174E",
"N#	c #572C3F",
"O#	c #7A2171",
"P#	c #7D007E",
"Q#	c #7F0080",
"R#	c #990C98",
"S#	c #7F0081",
"T#	c #960F94",
"U#	c #644032",
"V#	c #67285B",
"W#	c #662859",
"X#	c #620063",
"Y#	c #A000A0",
"Z#	c #94208E",
"`#	c #5F3E30",
" $	c #66364A",
".$	c #5C1A56",
"+$	c #762F64",
"@$	c #5B3E23",
"#$	c #4D322C",
"$$	c #5B3243",
"%$	c #8C038C",
"&$	c #69026C",
"*$	c #6E2960",
"=$	c #592151",
"-$	c #520052",
";$	c #4E2540",
">$	c #710573",
",$	c #7A3067",
"'$	c #8E098D",
")$	c #711B6D",
"!$	c #503A21",
"~$	c #6B006B",
"{$	c #732F61",
"]$	c #622A54",
"^$	c #7B007C",
"/$	c #720072",
"($	c #940394",
"_$	c #643549",
":$	c #4C3823",
"<$	c #632858",
"[$	c #690569",
"}$	c #622C50",
"|$	c #511D47",
"1$	c #5C085C",
"2$	c #4A3427",
"3$	c #6C056D",
"4$	c #78007A",
"5$	c #572945",
"6$	c #4A2C33",
"7$	c #510051",
"8$	c #4D253E",
"9$	c #570556",
"0$	c #5B005C",
"a$	c #6B2A5C",
"b$	c #780778",
"c$	c #561B50",
"d$	c #4F3A1C",
"e$	c #65255C",
"f$	c #5E1B5A",
"g$	c #820083",
"h$	c #66265C",
"i$	c #4A3622",
"j$	c #56264A",
"k$	c #530552",
"l$	c #5F2754",
"m$	c #560656",
"n$	c #5A045A",
"o$	c #422E21",
"p$	c #4C044C",
"q$	c #670068",
"r$	c #601C5A",
"s$	c #56204D",
"t$	c #57254D",
"u$	c #50054F",
"v$	c #530054",
"w$	c #552842",
"x$	c #5A065A",
"y$	c #6A006E",
"z$	c #620862",
"A$	c #644327",
"B$	c #5A005A",
"C$	c #6C026D",
"D$	c #68006B",
"E$	c #6D086E",
"F$	c #542547",
"G$	c #51184A",
"H$	c #4D034C",
"I$	c #4E2241",
"J$	c #540554",
"K$	c #610261",
"L$	c #4E2740",
"M$	c #4A0449",
"N$	c #760078",
"O$	c #630265",
"P$	c #501F47",
"Q$	c #69026B",
"R$	c #64255B",
"S$	c #5C0B5B",
"T$	c #760478",
"U$	c #5E1A58",
"V$	c #4E034D",
"W$	c #4C004D",
"X$	c #4D084B",
"Y$	c #634225",
"Z$	c #6D086D",
"`$	c #6C3057",
" %	c #7D017E",
".%	c #810B80",
"+%	c #7B067B",
"@%	c #640064",
"#%	c #4C1D42",
"$%	c #530055",
"%%	c #471C3E",
"&%	c #450444",
"*%	c #760077",
"=%	c #5D005F",
"-%	c #52144D",
";%	c #620262",
">%	c #6A026B",
",%	c #55313A",
"'%	c #5D3F25",
")%	c #6C384D",
"!%	c #7A1D74",
"~%	c #730076",
"{%	c #430641",
"]%	c #4B381C",
"^%	c #6E2D5D",
"/%	c #652F52",
"(%	c #5F2850",
"_%	c #780479",
":%	c #7D2572",
"<%	c #6C4531",
"[%	c #583A2C",
"}%	c #6B006D",
"|%	c #471E3C",
"1%	c #4D074C",
"2%	c #4C064B",
"3%	c #49233A",
"4%	c #560057",
"5%	c #7B3069",
"6%	c #624226",
"7%	c #4F2B38",
"8%	c #602556",
"9%	c #6C006E",
"0%	c #4F044F",
"a%	c #3F2E1D",
"b%	c #68275B",
"c%	c #6D0C6D",
"d%	c #79007A",
"e%	c #762D65",
"f%	c #713C4D",
"g%	c #5B2F41",
"h%	c #4E3624",
"i%	c #5E055E",
"j%	c #462634",
"k%	c #5C3834",
"l%	c #603F2D",
"m%	c #8D088C",
"n%	c #680467",
"o%	c #630066",
"p%	c #792270",
"q%	c #7E2973",
"r%	c #480846",
"s%	c #5D055E",
"t%	c #7D037E",
"u%	c #6C036D",
"v%	c #3E1D33",
"w%	c #522445",
"x%	c #760677",
"y%	c #780379",
"z%	c #810082",
"A%	c #651A60",
"B%	c #6E076D",
"C%	c #5D015E",
"D%	c #73166F",
"E%	c #70156E",
"F%	c #542C3B",
"G%	c #764C28",
"H%	c #6F4A26",
"I%	c #69452B",
"J%	c #910D90",
"K%	c #7E2D6F",
"L%	c #5F3444",
"M%	c #712565",
"N%	c #6E4534",
"O%	c #6C295F",
"P%	c #610B61",
"Q%	c #4F1B46",
"R%	c #543335",
"S%	c #783B59",
"T%	c #780579",
"U%	c #720274",
"V%	c #4D1349",
"W%	c #4A1F3E",
"X%	c #600462",
"Y%	c #5C005E",
"Z%	c #711570",
"`%	c #691568",
" &	c #673C3A",
".&	c #664523",
"+&	c #634321",
"@&	c #674623",
"#&	c #8D0B8B",
"$&	c #69354F",
"%&	c #6B1B67",
"&&	c #720C72",
"*&	c #6C462E",
"=&	c #644424",
"-&	c #64412B",
";&	c #672C55",
">&	c #69384A",
",&	c #6A4726",
"'&	c #604127",
")&	c #640665",
"!&	c #430043",
"~&	c #3F1B35",
"{&	c #480348",
"]&	c #4D004D",
"^&	c #550057",
"/&	c #451F38",
"(&	c #5B0B5A",
"_&	c #5D2C47",
":&	c #703E47",
"<&	c #5E4120",
"[&	c #543D1D",
"}&	c #563D1D",
"|&	c #553C21",
"1&	c #702F5D",
"2&	c #702E5F",
"3&	c #4D283A",
"4&	c #570057",
"5&	c #67314E",
"6&	c #653A41",
"7&	c #542B3C",
"8&	c #550D52",
"9&	c #6D0B6D",
"0&	c #6B2D5A",
"a&	c #5B2A4B",
"b&	c #55392B",
"c&	c #6E066F",
"d&	c #591656",
"e&	c #460046",
"f&	c #3F113A",
"g&	c #490248",
"h&	c #6F096D",
"i&	c #70096E",
"j&	c #680468",
"k&	c #4C2041",
"l&	c #50391F",
"m&	c #5A3F1E",
"n&	c #49351B",
"o&	c #4E3A1C",
"p&	c #563D1E",
"q&	c #4A302C",
"r&	c #522644",
"s&	c #602B51",
"t&	c #593D27",
"u&	c #563C21",
"v&	c #4A243A",
"w&	c #552744",
"x&	c #740E74",
"y&	c #59274D",
"z&	c #573A2B",
"A&	c #523926",
"B&	c #54372C",
"C&	c #7A0A7A",
"D&	c #5E2555",
"E&	c #721E6C",
"F&	c #5D3C2F",
"G&	c #533137",
"H&	c #4D2042",
"I&	c #480247",
"J&	c #840084",
"K&	c #82207A",
"L&	c #684133",
"M&	c #634030",
"N&	c #6D394E",
"O&	c #680C67",
"P&	c #533B21",
"Q&	c #492D2C",
"R&	c #411F34",
"S&	c #442333",
"T&	c #483620",
"U&	c #55214C",
"V&	c #7C007D",
"W&	c #740574",
"X&	c #473322",
"Y&	c #433319",
"Z&	c #4D381E",
"`&	c #48203B",
" *	c #590959",
".*	c #692261",
"+*	c #5D2654",
"@*	c #462633",
"#*	c #4F2E35",
"$*	c #630465",
"%*	c #511F47",
"&*	c #5E2950",
"**	c #4C381E",
"=*	c #50074E",
"-*	c #8E038D",
";*	c #732D62",
">*	c #6C126A",
",*	c #710972",
"'*	c #5E3246",
")*	c #620B62",
"!*	c #5D2E49",
"~*	c #5F165A",
"{*	c #5C065B",
"]*	c #4C1F41",
"^*	c #501F46",
"/*	c #770378",
"(*	c #3F2B24",
"_*	c #471740",
":*	c #422F20",
"<*	c #550654",
"[*	c #4C044B",
"}*	c #531F4A",
"|*	c #521E4A",
"1*	c #4D2938",
"2*	c #4F2E36",
"3*	c #630462",
"4*	c #4F1F45",
"5*	c #5D045D",
"6*	c #561D4D",
"7*	c #531F48",
"8*	c #4C024C",
"9*	c #4D034D",
"0*	c #632E4D",
"a*	c #6E394E",
"b*	c #652858",
"c*	c #642659",
"d*	c #720574",
"e*	c #63255A",
"f*	c #6D0C6E",
"g*	c #501C48",
"h*	c #590658",
"i*	c #482835",
"j*	c #4E2242",
"k*	c #620464",
"l*	c #550454",
"m*	c #421E38",
"n*	c #5D095E",
"o*	c #3F2C21",
"p*	c #510451",
"q*	c #561E4F",
"r*	c #5C025D",
"s*	c #642954",
"t*	c #6A2362",
"u*	c #4A2837",
"v*	c #4E2042",
"w*	c #663B39",
"x*	c #6C4728",
"y*	c #683849",
"z*	c #45282F",
"A*	c #621A5C",
"B*	c #663C3B",
"C*	c #6B2E58",
"D*	c #6D2C5C",
"E*	c #6D066E",
"F*	c #5A2B4A",
"G*	c #47341E",
"H*	c #493423",
"I*	c #4C2E32",
"J*	c #5C2451",
"K*	c #4A2935",
"L*	c #5D3344",
"M*	c #553C22",
"N*	c #4E3622",
"O*	c #49351F",
"P*	c #44331A",
"Q*	c #492A32",
"R*	c #3F2D20",
"S*	c #670968",
"T*	c #80067F",
"U*	c #701A6C",
"V*	c #4D2E35",
"W*	c #4C371B",
"X*	c #51391F",
"Y*	c #573B22",
"Z*	c #704926",
"`*	c #662D56",
" =	c #512941",
".=	c #4C4741",
"+=	c #413228",
"@=	c #552E3E",
"#=	c #5C2252",
"$=	c #453122",
"%=	c #49361A",
"&=	c #533B1D",
"*=	c #533B1E",
"==	c #4F4133",
"-=	c #575149",
";=	c #484036",
">=	c #4C3621",
",=	c #5B3E20",
"'=	c #614022",
")=	c #583D1E",
"!=	c #4F391C",
"~=	c #4F381C",
"{=	c #473519",
"]=	c #473323",
"^=	c #43332B",
"/=	c #4B4040",
"(=	c #4B423D",
"_=	c #433724",
":=	c #4D381B",
"<=	c #593D1E",
"[=	c #413229",
"}=	c #4E4643",
"  . + @ # $ % & * = - ; > , ' * & ) $ ! ~ { ' * * * ] ^ / ( _ _ ",
": < # [ } | 1 2 ) 3 4 5 6 7 [ 8 9 0 a b c d e f g h i } j k l m ",
"n o a p q r s t u v w x y z A B C D E F G H I J K L M N O P Q R ",
"S T U V W X Y $ Z # `  ...+.@.#.$.%.&.*.=.-.;.>.,.'.).!.~.{.].^.",
"/.(.~ _.:.<.[.}.|.1.2.3.4.5.6.7.8.9.0.a.b.=.K c.d.e.f.g.h.i.j.k.",
"l.m.n.o.p.q.r.s.t.u.v.w.x.y.z.A.B.C.D.E.F.G.H.I.J.K.L.M.N.O.P.Q.",
"R.S.T.U.V.W.X.Y.Z.`. +.+++@+#+$+%+&+*+=+-+;+>+,+'+)+!+~+{+]+^+/+",
"(+_+:+<+[+}+|+1+2+3+4+5+6+7+8+9+0+a+b+c+d+e+f+g+h+i+..j+k+1 ) @ ",
"(+} '+l+m+n+o+p+q+r+s+t+u+v+w+x+1 y+z+A+B+C+D+E+F+G+$ H+I+J+K+L+",
"M+N+O+P+Q+R+S+T+U+V+W+X+Y+Z+`+ @.@+@@@#@$@%@&@*@=@-@q ;@>@,@'@)@",
"!@~@q / } $ {@]@^@$+/@(@_@:@<@[@}@!.|@` x+1@2@3@4@5@3.1 6@7@8@9@",
"0@a@b@` c@d@++e@f@g@h@i@j@k@l@m@n@o@p@q@r@s@5@t@u@q i v@w@x@y@z@",
"A@B@C@c D@E@F@G@H@I@J@K@L@M@N@O@P@Q@R@S@T@U@V@W@$ X@] Y@Z@`@ #.#",
"+#@#### $#%#&#*#=#-#j ;#>#,#'#)#!#~#{#]#^#/#(#V+_#:#L+<#[#}#|#1#",
"2#3#4#5#6#7#8#9#0#a#b#c#d#e#f#g#h#i#j#k#l#m#%+n#o#p#~ q#r#s#t#u#",
"a v#w## N+0+x#y#z#A#B#C#D#E#F#G#H#I#J#K#l#L#M#N#O#P#Q#4 R#S#T#U#",
"/ V#W#. X#Y#Z#`# $.$D@+$@$#$$$%$$ &$D@*$l#=$-$;$>$$ d@,$'$X@)$!$",
"~${$]$^$/$($_$:$<$[$m+}$|$1$2$3$[ a 4$5$6$-#7$8$9$0$` a$b$} c$d$",
"t@e$f$u 3.g$h$i$j$k$# l$m$n$o$p$)@/ q$r$s$# 3.t$u$v$[ w$x$y$z$A$",
"B$C$(+7$[ D$E$F$G$H$7$I$J$K$L$M$-$v N$O$P$Q$m+R$S$T$a U$V$W$X$Y$",
"(+Z$`$/.Q+N+ %.%+%@%0$#%:#$%%%&%0 *%$ =%-%;%>%,%'%)%!%~%# L+{%]%",
"0 ^%/%(%2#_%:%<%[%r+}%|%1%2%3%k$1 ` 4%'@) [ 3 5%6%7%8%P#P#9%0%a%",
"0 b%c%j#d%e%f%g%h%i%$+j%k%0.l%m%n%$#a o%i 5#p%q%j#r%s%t%2#(#u%v%",
"++w%x%y%z%A%B%C%D%E%N F%G%H%I%J%K%L%t%4$q M%N%O%P%Q%R%S%T%c U%V%",
") W%X%` # p Y%| Z%`%|. &.&+&@&Y+#&$&%&c &&*&=&-&;&>&,&'&)&U a >@",
"!&~&{&]&i 1 Y%^&/&(&_&:&<&[&}&|&1&2&3&4&5&6&7&8&9&0&a&b&c&+%E@d&",
"e&f&g&0 { h&i&j&k&l&m&n&o&p&q&r&s&t&u&v&w&x&y&z&A&B&C&D&E&F&G&H&",
"e&I&0$J&K&L&M&N&O&P&Q&R&S&T&U&V&W&X&Y&Z&`& *.*+*@*#*$*%*5+&***=*",
"2 /+} -*;*>*,*'*)*!*~*{*]*1#^*a /*(*_*:*<*[*}*|*1*2*3*4*5*6*q.7*",
"8*9*0*a*b*c*d*e*f*g*+#h*i*j*L#k*l*m*n*o*Q.p*q*r*s*t*u*v*S$w*x*y*",
"z*A*B*C*D*E*F*G*H*I*J*K*L*M*|&N*O*P*Q*R*S*..T*U*V*h%W*X*Y*Z*`* =",
".=+=@=#=$=:*%=&=*===-=;=>=,='=)=!=~=W*{=]=^=/=(=_=:=)=<=<=W*[=}="};
