/* XPM */
static char * p_xpm[] = {
"32 32 906 2",
"  	c #6F2068",
". 	c #6A006C",
"+ 	c #450045",
"@ 	c #480048",
"# 	c #6D006F",
"$ 	c #6E0070",
"% 	c #59005B",
"& 	c #410041",
"* 	c #400040",
"= 	c #510052",
"- 	c #7D097E",
"; 	c #6D3157",
"> 	c #682E55",
", 	c #580758",
"' 	c #420242",
") 	c #44294B",
"! 	c #3C6875",
"~ 	c #4D114E",
"{ 	c #830083",
"] 	c #6F0071",
"^ 	c #640065",
"/ 	c #420443",
"( 	c #3F2048",
"_ 	c #6E818B",
": 	c #716474",
"< 	c #4F024F",
"[ 	c #6A006B",
"} 	c #69245C",
"| 	c #633244",
"1 	c #63402F",
"2 	c #791F72",
"3 	c #540054",
"4 	c #630065",
"5 	c #67006A",
"6 	c #610063",
"7 	c #4A004A",
"8 	c #4C004C",
"9 	c #700071",
"0 	c #863075",
"a 	c #6B394A",
"b 	c #662E54",
"c 	c #613350",
"d 	c #6E979F",
"e 	c #A5BEBE",
"f 	c #759494",
"g 	c #8F898F",
"h 	c #7D447D",
"i 	c #7E017F",
"j 	c #720075",
"k 	c #640765",
"l 	c #50335C",
"m 	c #349EA4",
"n 	c #480647",
"o 	c #736C79",
"p 	c #CCE1E2",
"q 	c #6E3570",
"r 	c #7D2472",
"s 	c #6D472D",
"t 	c #664424",
"u 	c #623B37",
"v 	c #712C61",
"w 	c #66275B",
"x 	c #770079",
"y 	c #5F0061",
"z 	c #640066",
"A 	c #710071",
"B 	c #6C046B",
"C 	c #650066",
"D 	c #5D005E",
"E 	c #600061",
"F 	c #7C047C",
"G 	c #700471",
"H 	c #770777",
"I 	c #817E7C",
"J 	c #A1F5F3",
"K 	c #BCEEEE",
"L 	c #A1C5C5",
"M 	c #989999",
"N 	c #5E7B7F",
"O 	c #6A2567",
"P 	c #592C44",
"Q 	c #644228",
"R 	c #58756D",
"S 	c #30B9B7",
"T 	c #56422C",
"U 	c #62A3A0",
"V 	c #A4F9F9",
"W 	c #979FAF",
"X 	c #78246D",
"Y 	c #674526",
"Z 	c #562648",
"` 	c #68285C",
" .	c #7C0A7C",
"..	c #6D2A5F",
"+.	c #730075",
"@.	c #770778",
"#.	c #772F64",
"$.	c #7D2671",
"%.	c #6A2D58",
"&.	c #720074",
"*.	c #5F0060",
"=.	c #660066",
"-.	c #6A2770",
";.	c #94B1B1",
">.	c #A8ECEC",
",.	c #AFDCDC",
"'.	c #B4B4B4",
").	c #7F8787",
"!.	c #1D5151",
"~.	c #715F53",
"{.	c #714B27",
"].	c #704B27",
"^.	c #4C928D",
"/.	c #08C3C4",
"(.	c #485955",
"_.	c #29C9C8",
":.	c #8BF1F1",
"<.	c #BCB9C1",
"[.	c #730972",
"}.	c #64422B",
"|.	c #67245D",
"1.	c #5E2750",
"2.	c #6D076E",
"3.	c #612A51",
"4.	c #783164",
"5.	c #704A27",
"6.	c #614226",
"7.	c #602A52",
"8.	c #5A005B",
"9.	c #5F045F",
"0.	c #630763",
"a.	c #5D065D",
"b.	c #620064",
"c.	c #6B2673",
"d.	c #95D4D5",
"e.	c #78E6E6",
"f.	c #A7C0C0",
"g.	c #9A9A9A",
"h.	c #859898",
"i.	c #187979",
"j.	c #746257",
"k.	c #7C4F2B",
"l.	c #648A80",
"m.	c #13C5C5",
"n.	c #0BDDDD",
"o.	c #18D7D7",
"p.	c #02BABA",
"q.	c #8CEFEF",
"r.	c #BDB9C0",
"s.	c #5B075A",
"t.	c #583C26",
"u.	c #602457",
"v.	c #542743",
"w.	c #580457",
"x.	c #5B1F54",
"y.	c #800081",
"z.	c #883474",
"A.	c #614222",
"B.	c #523B20",
"C.	c #5B2651",
"D.	c #630464",
"E.	c #653843",
"F.	c #644229",
"G.	c #5B3D29",
"H.	c #5F065F",
"I.	c #5D0C5F",
"J.	c #A3ABB0",
"K.	c #73CCCC",
"L.	c #A6BEBE",
"M.	c #858989",
"N.	c #407A7B",
"O.	c #6B454C",
"P.	c #6E5134",
"Q.	c #39B3B1",
"R.	c #00B2B2",
"S.	c #00CFCF",
"T.	c #00C8C8",
"U.	c #00C3C3",
"V.	c #BBBBBB",
"W.	c #5B045B",
"X.	c #542A3F",
"Y.	c #532148",
"Z.	c #540354",
"`.	c #570456",
" +	c #5D1E57",
".+	c #8E098C",
"++	c #7A3365",
"@+	c #5D3E29",
"#+	c #522347",
"$+	c #4D1F43",
"%+	c #5D2053",
"&+	c #674428",
"*+	c #692360",
"=+	c #6C374F",
"-+	c #760876",
";+	c #500050",
">+	c #605460",
",+	c #A2BFBF",
"'+	c #BAC7C7",
")+	c #B3B3B3",
"!+	c #8C9D9D",
"~+	c #627376",
"{+	c #773761",
"]+	c #5E4E39",
"^+	c #1FABAD",
"/+	c #4197A2",
"(+	c #00CACA",
"_+	c #009A9A",
":+	c #00BEBE",
"<+	c #8CF0F0",
"[+	c #BBBCBB",
"}+	c #700472",
"|+	c #571B4E",
"1+	c #4D1547",
"2+	c #4B004B",
"3+	c #580058",
"4+	c #640265",
"5+	c #793164",
"6+	c #673946",
"7+	c #7F0B7F",
"8+	c #7C067D",
"9+	c #431C39",
"0+	c #572D3D",
"a+	c #64422A",
"b+	c #6F146E",
"c+	c #6B425E",
"d+	c #907990",
"e+	c #94919A",
"f+	c #A29FA3",
"g+	c #B1B1B1",
"h+	c #BABABA",
"i+	c #A0A0A0",
"j+	c #6C6C6C",
"k+	c #494B4D",
"l+	c #664A60",
"m+	c #613555",
"n+	c #575971",
"o+	c #4F8A96",
"p+	c #06B5B4",
"q+	c #2A7573",
"r+	c #019C9C",
"s+	c #8BEFEF",
"t+	c #B9BCBB",
"u+	c #691866",
"v+	c #72305E",
"w+	c #7F0C7F",
"x+	c #810081",
"y+	c #610363",
"z+	c #3F1C34",
"A+	c #602F45",
"B+	c #703663",
"C+	c #A5ACB1",
"D+	c #BAE0E0",
"E+	c #A4D3D3",
"F+	c #C0F9F9",
"G+	c #EEFAFA",
"H+	c #C7DADA",
"I+	c #ABCFCF",
"J+	c #86B2B2",
"K+	c #2B9B9B",
"L+	c #1B9393",
"M+	c #0D8E8E",
"N+	c #2E6A6B",
"O+	c #415959",
"P+	c #299797",
"Q+	c #0FB3B3",
"R+	c #56452D",
"S+	c #2C7D7C",
"T+	c #9FF2F2",
"U+	c #90A1A7",
"V+	c #483228",
"W+	c #541550",
"X+	c #490049",
"Y+	c #4E004E",
"Z+	c #590059",
"`+	c #5E0060",
" @	c #6C2164",
".@	c #7E047E",
"+@	c #6C006D",
"@@	c #690369",
"#@	c #461B3E",
"$@	c #690469",
"%@	c #937794",
"&@	c #E4F0F0",
"*@	c #83E1E1",
"=@	c #C5D7D7",
"-@	c #E7EAEA",
";@	c #C7FAFA",
">@	c #E8FCFC",
",@	c #BFEFEF",
"'@	c #3CB6B6",
")@	c #00D6D6",
"!@	c #00BFBF",
"~@	c #009191",
"{@	c #007474",
"]@	c #0F7272",
"^@	c #0BAAAA",
"/@	c #03B3B3",
"(@	c #414C40",
"_@	c #40908D",
":@	c #B2F4F4",
"<@	c #753D7B",
"[@	c #5B2054",
"}@	c #4A0649",
"|@	c #530053",
"1@	c #5C005D",
"2@	c #712467",
"3@	c #6D046F",
"4@	c #6C026E",
"5@	c #6A1A6C",
"6@	c #80A6B2",
"7@	c #BBF5F5",
"8@	c #D2E2E2",
"9@	c #F99A9A",
"0@	c #CA9999",
"a@	c #C1C0C0",
"b@	c #D7D9D9",
"c@	c #ABCECE",
"d@	c #62AFAF",
"e@	c #00CBCB",
"f@	c #026565",
"g@	c #495959",
"h@	c #499898",
"i@	c #00B4B4",
"j@	c #345754",
"k@	c #83888C",
"l@	c #A0C4C8",
"m@	c #631865",
"n@	c #57254C",
"o@	c #5C065C",
"p@	c #722666",
"q@	c #6E3454",
"r@	c #654327",
"s@	c #68364C",
"t@	c #640365",
"u@	c #750076",
"v@	c #740075",
"w@	c #6D646B",
"x@	c #8DBAB9",
"y@	c #B6D7D7",
"z@	c #FBB2B2",
"A@	c #FC4D4D",
"B@	c #F21F1F",
"C@	c #D22C2C",
"D@	c #A55D5D",
"E@	c #A28686",
"F@	c #687C7C",
"G@	c #039898",
"H@	c #007C7C",
"I@	c #204B4B",
"J@	c #0D4949",
"K@	c #099292",
"L@	c #00B3B3",
"M@	c #394D60",
"N@	c #7C8298",
"O@	c #716177",
"P@	c #4C054B",
"Q@	c #533927",
"R@	c #77345E",
"S@	c #754937",
"T@	c #6D4729",
"U@	c #582C42",
"V@	c #4C3623",
"W@	c #681766",
"X@	c #820082",
"Y@	c #6E036F",
"Z@	c #4D0F48",
"`@	c #613640",
" #	c #867F84",
".#	c #CDD9D9",
"+#	c #FB9191",
"@#	c #FC4C4C",
"##	c #F31717",
"$#	c #D40000",
"%#	c #BD0000",
"&#	c #AB6E6E",
"*#	c #696E6E",
"=#	c #184A4A",
"-#	c #024545",
";#	c #1F3A3A",
">#	c #48284B",
",#	c #0F6B6D",
"'#	c #464160",
")#	c #670169",
"!#	c #470047",
"~#	c #5A085A",
"{#	c #6A462A",
"]#	c #80405C",
"^#	c #7E0E7C",
"/#	c #6F2067",
"(#	c #6F006F",
"_#	c #602952",
":#	c #5A284C",
"<#	c #630365",
"[#	c #522F39",
"}#	c #614029",
"|#	c #5F2551",
"1#	c #92A4B0",
"2#	c #D3EEEE",
"3#	c #696F6F",
"4#	c #036E6E",
"5#	c #096161",
"6#	c #3D4040",
"7#	c #323632",
"8#	c #087C7B",
"9#	c #0DAFAF",
"0#	c #0DB5B5",
"a#	c #285A63",
"b#	c #470A48",
"c#	c #78266C",
"d#	c #734931",
"e#	c #873770",
"f#	c #723358",
"g#	c #5F095E",
"h#	c #660068",
"i#	c #6E2F5B",
"j#	c #662D53",
"k#	c #5E005F",
"l#	c #510350",
"m#	c #591954",
"n#	c #612854",
"o#	c #898CA6",
"p#	c #9EE6E7",
"q#	c #B3D6D6",
"r#	c #FA8F8F",
"s#	c #6B6D6D",
"t#	c #046969",
"u#	c #095F5F",
"v#	c #394443",
"w#	c #403D2C",
"x#	c #2B9594",
"y#	c #8AF0EF",
"z#	c #43B8B7",
"A#	c #076262",
"B#	c #4E3551",
"C#	c #7F326B",
"D#	c #723B51",
"E#	c #8D2F80",
"F#	c #714638",
"G#	c #71325A",
"H#	c #652B55",
"I#	c #692B5A",
"J#	c #700072",
"K#	c #80167E",
"L#	c #9FA9B2",
"M#	c #7DAAAA",
"N#	c #9ECECE",
"O#	c #686E6E",
"P#	c #027373",
"Q#	c #067A7A",
"R#	c #395F5F",
"S#	c #413C2B",
"T#	c #3B8B88",
"U#	c #8BF7F4",
"V#	c #18A6A6",
"W#	c #005F5F",
"X#	c #563D69",
"Y#	c #7F0080",
"Z#	c #990C98",
"`#	c #7F0081",
" $	c #960F94",
".$	c #644032",
"+$	c #67285B",
"@$	c #662859",
"#$	c #620063",
"$$	c #A000A0",
"%$	c #94208E",
"&$	c #867975",
"*$	c #7C8384",
"=$	c #A8A9A9",
"-$	c #667474",
";$	c #009494",
">$	c #00AAAA",
",$	c #068080",
"'$	c #0F4D4C",
")$	c #59415F",
"!$	c #70D5D5",
"~$	c #0D9B9B",
"{$	c #105759",
"]$	c #572C64",
"^$	c #7A3067",
"/$	c #8E098D",
"($	c #670069",
"_$	c #711B6D",
":$	c #503A21",
"<$	c #6B006B",
"[$	c #732F61",
"}$	c #622A54",
"|$	c #7B007C",
"1$	c #720072",
"2$	c #940394",
"3$	c #643549",
"4$	c #4D3824",
"5$	c #6E486A",
"6$	c #AA9EA5",
"7$	c #FA9090",
"8$	c #687575",
"9$	c #165C5C",
"0$	c #005B5B",
"a$	c #034B4B",
"b$	c #3F3441",
"c$	c #5C1C5C",
"d$	c #2A6C74",
"e$	c #067273",
"f$	c #494463",
"g$	c #5B015C",
"h$	c #6B2A5C",
"i$	c #780778",
"j$	c #561B50",
"k$	c #4F3A1C",
"l$	c #5B005B",
"m$	c #65255C",
"n$	c #5E1B5A",
"o$	c #820083",
"p$	c #66265C",
"q$	c #4A3622",
"r$	c #56264A",
"s$	c #61385F",
"t$	c #E5A6A7",
"u$	c #BC0E0E",
"v$	c #9A7878",
"w$	c #555656",
"x$	c #2B5656",
"y$	c #316060",
"z$	c #0E4D4D",
"A$	c #512753",
"B$	c #458393",
"C$	c #0B9E9F",
"D$	c #4F1452",
"E$	c #530054",
"F$	c #552842",
"G$	c #5A065A",
"H$	c #6A006E",
"I$	c #620862",
"J$	c #644327",
"K$	c #5A005A",
"L$	c #6C026D",
"M$	c #510051",
"N$	c #68006B",
"O$	c #6D086E",
"P$	c #542547",
"Q$	c #51184A",
"R$	c #521F52",
"S$	c #C5A1A5",
"T$	c #FA5656",
"U$	c #D40101",
"V$	c #AF4848",
"W$	c #828080",
"X$	c #374343",
"Y$	c #097878",
"Z$	c #446B6B",
"`$	c #144D4D",
" %	c #442E40",
".%	c #69026B",
"+%	c #5D8EA6",
"@%	c #0CACAD",
"#%	c #5A175D",
"$%	c #760478",
"%%	c #5E1A58",
"&%	c #4E034D",
"*%	c #4C004D",
"=%	c #4D084B",
"-%	c #634225",
";%	c #6D086D",
">%	c #6C3057",
",%	c #7D017E",
"'%	c #810B80",
")%	c #7B067B",
"!%	c #640064",
"~%	c #642B64",
"{%	c #C79196",
"]%	c #F03737",
"^%	c #C85B5B",
"/%	c #787E7E",
"(%	c #294B4B",
"_%	c #224A4A",
":%	c #047979",
"<%	c #402E3C",
"[%	c #620262",
"}%	c #4895A3",
"|%	c #0C9B9B",
"1%	c #5B412B",
"2%	c #6C384D",
"3%	c #7A1D74",
"4%	c #730076",
"5%	c #430641",
"6%	c #4B381C",
"7%	c #560056",
"8%	c #6E2D5D",
"9%	c #652F52",
"0%	c #5F2850",
"a%	c #780479",
"b%	c #7D2572",
"c%	c #6C4531",
"d%	c #583A2C",
"e%	c #630664",
"f%	c #6B006D",
"g%	c #513F50",
"h%	c #8BC2C2",
"i%	c #64A0A0",
"j%	c #117171",
"k%	c #114B4B",
"l%	c #024E4E",
"m%	c #007979",
"n%	c #308080",
"o%	c #0E5151",
"p%	c #402742",
"q%	c #4693A0",
"r%	c #138A89",
"s%	c #60432A",
"t%	c #4F2B38",
"u%	c #602556",
"v%	c #7D007E",
"w%	c #6C006E",
"x%	c #4F044F",
"y%	c #3F2E1D",
"z%	c #68275B",
"A%	c #6D0C6D",
"B%	c #69275D",
"C%	c #79007A",
"D%	c #762D65",
"E%	c #713C4D",
"F%	c #5B2F41",
"G%	c #4E3624",
"H%	c #5E055E",
"I%	c #550056",
"J%	c #514E55",
"K%	c #97F5F4",
"L%	c #19BDBD",
"M%	c #007B7B",
"N%	c #035656",
"O%	c #185656",
"P%	c #008F8F",
"Q%	c #00B8B8",
"R%	c #037777",
"S%	c #313645",
"T%	c #5D045F",
"U%	c #558298",
"V%	c #187679",
"W%	c #67295E",
"X%	c #480846",
"Y%	c #5D055E",
"Z%	c #7D037E",
"`%	c #650067",
" &	c #6C036D",
".&	c #3E1D33",
"+&	c #522445",
"@&	c #760677",
"#&	c #780379",
"$&	c #810082",
"%&	c #651A60",
"&&	c #6E076D",
"*&	c #5D015E",
"=&	c #73166F",
"-&	c #70156E",
";&	c #600062",
">&	c #699BA2",
",&	c #29C5C5",
"'&	c #00A0A0",
")&	c #008282",
"!&	c #056363",
"~&	c #245C5C",
"{&	c #00A7A7",
"]&	c #18464B",
"^&	c #6E2F68",
"/&	c #55B6B4",
"(&	c #3FAEAD",
"_&	c #513F65",
":&	c #4F1B46",
"<&	c #543335",
"[&	c #783B59",
"}&	c #780579",
"|&	c #720274",
"1&	c #4D1349",
"2&	c #4A1F3E",
"3&	c #600462",
"4&	c #5C005E",
"5&	c #711570",
"6&	c #691568",
"7&	c #654645",
"8&	c #319694",
"9&	c #078C8C",
"0&	c #006F6F",
"a&	c #025656",
"b&	c #145353",
"c&	c #006161",
"d&	c #0A5556",
"e&	c #632667",
"f&	c #6B4A36",
"g&	c #36B2B0",
"h&	c #15AAA9",
"i&	c #5B4D5F",
"j&	c #69384A",
"k&	c #6A4726",
"l&	c #604127",
"m&	c #640665",
"n&	c #430043",
"o&	c #3F1B35",
"p&	c #480348",
"q&	c #4D004D",
"r&	c #550055",
"s&	c #550057",
"t&	c #451F38",
"u&	c #5B0B5A",
"v&	c #5D2C47",
"w&	c #703E47",
"x&	c #489E9A",
"y&	c #8EECEC",
"z&	c #27A7A7",
"A&	c #026F6F",
"B&	c #137878",
"C&	c #0DCFCF",
"D&	c #3AAFAD",
"E&	c #136265",
"F&	c #66344E",
"G&	c #64444B",
"H&	c #40CDCC",
"I&	c #0EC7C7",
"J&	c #585476",
"K&	c #6B2D5A",
"L&	c #5B2A4B",
"M&	c #55392B",
"N&	c #6E066F",
"O&	c #591656",
"P&	c #460046",
"Q&	c #3F113A",
"R&	c #490248",
"S&	c #6F096D",
"T&	c #70096E",
"U&	c #680468",
"V&	c #4C2041",
"W&	c #50391F",
"X&	c #5A3F1E",
"Y&	c #49351B",
"Z&	c #3C928F",
"`&	c #B4EEEE",
" *	c #5DC3C3",
".*	c #147373",
"+*	c #5BDFDF",
"@*	c #1EA8A8",
"#*	c #33464F",
"$*	c #552744",
"%*	c #741F77",
"&*	c #47B7B6",
"**	c #12AAA9",
"=*	c #445047",
"-*	c #54372C",
";*	c #7A0A7A",
">*	c #5E2555",
",*	c #721E6C",
"'*	c #5D3C2F",
")*	c #533137",
"!*	c #4D2042",
"~*	c #480247",
"{*	c #5B005C",
"]*	c #840084",
"^*	c #82207A",
"/*	c #684133",
"(*	c #634030",
"_*	c #6D394E",
":*	c #680C67",
"<*	c #533B21",
"[*	c #492D2C",
"}*	c #411F34",
"|*	c #423E49",
"1*	c #29CACA",
"2*	c #16A7A7",
"3*	c #036060",
"4*	c #186666",
"5*	c #19A8A8",
"6*	c #038585",
"7*	c #33443D",
"8*	c #48203B",
"9*	c #591D5D",
"0*	c #2BB1B1",
"a*	c #06A9A9",
"b*	c #3A4A4B",
"c*	c #4F2E35",
"d*	c #630465",
"e*	c #511F47",
"f*	c #6C076C",
"g*	c #5E2950",
"h*	c #4C381E",
"i*	c #50074E",
"j*	c #8E038D",
"k*	c #732D62",
"l*	c #6C126A",
"m*	c #710972",
"n*	c #5E3246",
"o*	c #620B62",
"p*	c #5D2E49",
"q*	c #5F165A",
"r*	c #5C065B",
"s*	c #4B2B47",
"t*	c #42C0C8",
"u*	c #01A4A4",
"v*	c #034E4E",
"w*	c #1C6060",
"x*	c #00A3A3",
"y*	c #077979",
"z*	c #3F3425",
"A*	c #550654",
"B*	c #4B2454",
"C*	c #3DCDCC",
"D*	c #0DC7C7",
"E*	c #3A5C57",
"F*	c #4F2E36",
"G*	c #630462",
"H*	c #4F1F45",
"I*	c #5D045D",
"J*	c #561D4D",
"K*	c #531F48",
"L*	c #4C024C",
"M*	c #4D034D",
"N*	c #632E4D",
"O*	c #6E394E",
"P*	c #652858",
"Q*	c #642659",
"R*	c #720574",
"S*	c #63255A",
"T*	c #6D0C6E",
"U*	c #501C48",
"V*	c #5A0B59",
"W*	c #909296",
"X*	c #3FC8C9",
"Y*	c #035050",
"Z*	c #1C5959",
"`*	c #03A7A7",
" =	c #1CA4A4",
".=	c #1E6A69",
"+=	c #521355",
"@=	c #502054",
"#=	c #43B7B5",
"$=	c #11A9AA",
"%=	c #4C4D53",
"&=	c #6B2764",
"*=	c #4A2A38",
"==	c #4E2042",
"-=	c #5C0B5B",
";=	c #663B39",
">=	c #6C4728",
",=	c #683849",
"'=	c #45282F",
")=	c #621A5C",
"!=	c #663C3B",
"~=	c #6B2E58",
"{=	c #6D2C5C",
"]=	c #6D066E",
"^=	c #5A2B4A",
"/=	c #47341E",
"(=	c #493423",
"_=	c #4C2E32",
":=	c #5C2651",
"<=	c #669398",
"[=	c #B9F6F6",
"}=	c #31D3D3",
"|=	c #008989",
"1=	c #035454",
"2=	c #1D4E4E",
"3=	c #1BC4C4",
"4=	c #89F6F6",
"5=	c #3CCACA",
"6=	c #2B7172",
"7=	c #414648",
"8=	c #1CACAC",
"9=	c #03A6A6",
"0=	c #375252",
"a=	c #555155",
"b=	c #504D4A",
"c=	c #4A443F",
"d=	c #514945",
"e=	c #6B574C",
"f=	c #6C3F63",
"g=	c #522B43",
"h=	c #4C4741",
"i=	c #413228",
"j=	c #552E3E",
"k=	c #5C2252",
"l=	c #453122",
"m=	c #422F20",
"n=	c #49361A",
"o=	c #533B1D",
"p=	c #533B1E",
"q=	c #4F4133",
"r=	c #565D57",
"s=	c #86DFDF",
"t=	c #46C6C6",
"u=	c #019191",
"v=	c #025454",
"w=	c #1F3030",
"x=	c #474B4B",
"y=	c #416E6E",
"z=	c #2FAAAA",
"A=	c #63C3C3",
"B=	c #0A8D8D",
"C=	c #272D2D",
"D=	c #273737",
"E=	c #276E6E",
"F=	c #2E3131",
"G=	c #333333",
"H=	c #3D3D3D",
"I=	c #464646",
"J=	c #4F4F4F",
"K=	c #5A5A5A",
"L=	c #616061",
"M=	c #5D5958",
"  . + @ # $ % & * = - ; > , ' ) ! ~ $ { ] ^ / ( * _ : < [ } | | ",
"1 2 # 3 4 5 6 7 8 9 0 a b c d e f g h i j k l m n o p q r s t u ",
"v w x y z A B C D E F G H I J K L M N O P Q R S T U V W X Y Z ` ",
" ...+.@.#.$.%.$ &.# *.=.-.;.>.,.'.).!.~.{.].^./.(._.:.<.[.}.|.1.",
"2.3.] 4.5.6.7.8.9.0.a.b.c.d.e.f.g.h.i.j.k.l.m.n.o.p.q.r.s.t.u.v.",
"w.x.y.z.A.B.C.D.E.F.G.H.I.J.K.L.g.M.N.O.P.Q.R.S.T.U.q.V.W.X.Y.Z.",
"`. +.+++@+#+$+%+&+*+=+-+;+>+,+'+)+!+~+{+]+^+/+(+_+:+<+[+}+|+1+2+",
"3+4+5+6+7+8+9+0+a+b+c+d+e+f+g+h+i+j+k+l+m+n+o+p+q+r+s+t+u+6 8 @ ",
"3+4 v+w+x+y+z+A+B+C+D+E+F+G+H+I+J+K+L+M+N+O+P+Q+R+S+T+U+V+W+X+Y+",
"Z+`+ @.@+@@@#@$@%@&@*@=@-@;@>@,@'@)@!@~@{@]@^@/@(@_@:@<@[@}@|@1@",
"2@3@z [ 4 $ 4@5@6@7@8@9@0@a@b@c@d@e@!@~@f@g@h@i@j@k@l@m@n@o@p@q@",
"r@s@t@*.u@v@;+w@x@y@z@A@B@C@D@E@F@G@_+H@I@J@K@L@M@N@O@P@Q@R@S@T@",
"U@V@W@j X@Y@Z@`@ #.#+#@###$#%#&#*#=#-#;#>#,#L@L@'#)#!#~#{#]#^#/#",
"(#_#:## <#[#}#|#1#2#+#@###$#%#&#3#4#5#6#7#8#9#0#a#b#Y+c#d#e#f#g#",
"h#i#j#k#l#m#n#o#p#q#r#@###$#%#&#s#t#u#v#w#x#y#z#A#B#] C#D#E#F#G#",
"x H#I## `+J#K#L#M#N#r#@###$#%#&#O#P#Q#R#S#T#U#V#W#X#Y#0 Z#`# $.$",
"[ +$@$. #$$$%$&$*$=$r#@###$#%#&#-$;$>$,$'$)$!$~${$]$v@^$/$($_$:$",
"<$[$}$|$1$2$3$4$5$6$7$@###$#%#&#8$9$0$a$b$c$d$e$f$g$*.h$i$4 j$k$",
"l$m$n$D b.o$p$q$r$s$t$A@##$#u$v$w$x$y$z$A$# B$C$D$E$3 F$G$H$I$J$",
"K$L$3+M$3 N$O$P$Q$R$S$T$##U$V$W$X$Y$Z$`$ %.%+%@%#%$%x %%&%*%=%-%",
"3+;%>%2.+@`+,%'%)%!%~%{%]%^%/%(%_%:%Z$`$<%[%}%|%1%2%3%4%# Y+5%6%",
"7%8%9%0%h#a%b%c%d%e%f%g%h%i%j%k%l%m%n%o%p%3 q%r%s%t%u%v%v%w%x%y%",
"7%z%A%B%C%D%E%F%G%H%I%J%K%L%M%N%O%P%Q%R%S%T%U%V%W%X%Y%Z%h#`% &.&",
";++&@&#&$&%&&&*&=&-&;&>&,&'&)&!&~&;${&{@]&^&/&(&_&:&<&[&}&j |&1&",
"8 2&3&*.# y 4&5 5&6&9.7&8&9&0&a&b&H@c&d&e&f&g&h&i&j&k&l&m&+.x [@",
"n&o&p&q&r&6 4&s&t&u&v&w&x&y&z&A&B&C&D&E&F&G&H&I&J&K&L&M&N&)%Y@O&",
"P&Q&R&7%^ S&T&U&V&W&X&Y&Z&`& *f@.*+*@*#*$*%*&***=*-*;*>*,*'*)*!*",
"P&~*{*]*^*/*(*_*:*<*[*}*|*1*2*3*4*5*6*7*8*9*0*a*b*c*d*e*f*g*h*i*",
"7 2+4 j*k*l*m*n*o*p*q*r*s*t*u*v*w*x*y*z*A*B*C*D*E*F*G*H*I*J*B.K*",
"L*M*N*O*P*Q*R*S*T*U*(#V*W*X*{@Y*Z*`* =.=+=@=#=$=%=&=*===-=;=>=,=",
"'=)=!=~={=]=^=/=(=_=:=<=[=}=|=1=2=3=4=5=6=7=8=9=0=a=b=c=d=e=f=g=",
"h=i=j=k=l=m=n=o=p=q=r=s=t=u=v=w=x=y=z=A=B=C=D=E=F=G=H=I=J=K=L=M="};
