/* XPM */
static char * w_xpm[] = {
"32 32 177 2",
"  	c #454545",
". 	c #444444",
"+ 	c #7B7B7B",
"@ 	c #A5A5A5",
"# 	c #A1A1A1",
"$ 	c #A2A2A2",
"% 	c #7A7A7A",
"& 	c #535353",
"* 	c #868686",
"= 	c #969696",
"- 	c #999999",
"; 	c #8D8D8D",
"> 	c #737373",
", 	c #3B3B3B",
"' 	c #3D3D3D",
") 	c #424242",
"! 	c #404040",
"~ 	c #434343",
"{ 	c #787878",
"] 	c #717171",
"^ 	c #4D4D4D",
"/ 	c #A9A9A9",
"( 	c #CBCBCB",
"_ 	c #C5C5C5",
": 	c #C9C9C9",
"< 	c #C7C7C7",
"[ 	c #C0C0C0",
"} 	c #BFBFBF",
"| 	c #626262",
"1 	c #BBBBBB",
"2 	c #9F9F9F",
"3 	c #989898",
"4 	c #7C7C7C",
"5 	c #333333",
"6 	c #666666",
"7 	c #B6B6B6",
"8 	c #B8B8B8",
"9 	c #9C9C9C",
"0 	c #858585",
"a 	c #757575",
"b 	c #777777",
"c 	c #747474",
"d 	c #BEBEBE",
"e 	c #BCBCBC",
"f 	c #A8A8A8",
"g 	c #808080",
"h 	c #AEAEAE",
"i 	c #B9B9B9",
"j 	c #A7A7A7",
"k 	c #A0A0A0",
"l 	c #949494",
"m 	c #616161",
"n 	c #9B9B9B",
"o 	c #5D5D5D",
"p 	c #323232",
"q 	c #CFCFCF",
"r 	c #B2B2B2",
"s 	c #B4B4B4",
"t 	c #C4C4C4",
"u 	c #BABABA",
"v 	c #B5B5B5",
"w 	c #ACACAC",
"x 	c #9E9E9E",
"y 	c #686868",
"z 	c #383838",
"A 	c #A4A4A4",
"B 	c #919191",
"C 	c #979797",
"D 	c #8C8C8C",
"E 	c #939393",
"F 	c #3F3F3F",
"G 	c #303030",
"H 	c #8F8F8F",
"I 	c #494949",
"J 	c #2C2C2C",
"K 	c #929292",
"L 	c #959595",
"M 	c #828282",
"N 	c #4E4E4E",
"O 	c #363636",
"P 	c #4B4B4B",
"Q 	c #555555",
"R 	c #414141",
"S 	c #3C3C3C",
"T 	c #2A2A2A",
"U 	c #343434",
"V 	c #CDCDCD",
"W 	c #909090",
"X 	c #646464",
"Y 	c #606060",
"Z 	c #2B2B2B",
"` 	c #707070",
" .	c #BDBDBD",
"..	c #838383",
"+.	c #505050",
"@.	c #313131",
"#.	c #797979",
"$.	c #7E7E7E",
"%.	c #AAAAAA",
"&.	c #888888",
"*.	c #818181",
"=.	c #6D6D6D",
"-.	c #5F5F5F",
";.	c #595959",
">.	c #5A5A5A",
",.	c #2F2F2F",
"'.	c #373737",
").	c #565656",
"!.	c #8B8B8B",
"~.	c #CACACA",
"{.	c #B7B7B7",
"].	c #3E3E3E",
"^.	c #464646",
"/.	c #525252",
"(.	c #474747",
"_.	c #A6A6A6",
":.	c #9A9A9A",
"<.	c #545454",
"[.	c #7D7D7D",
"}.	c #4F4F4F",
"|.	c #484848",
"1.	c #B3B3B3",
"2.	c #B0B0B0",
"3.	c #898989",
"4.	c #252525",
"5.	c #A3A3A3",
"6.	c #9D9D9D",
"7.	c #8A8A8A",
"8.	c #5B5B5B",
"9.	c #5C5C5C",
"0.	c #636363",
"a.	c #232323",
"b.	c #7F7F7F",
"c.	c #4A4A4A",
"d.	c #AFAFAF",
"e.	c #696969",
"f.	c #272727",
"g.	c #242424",
"h.	c #2E2E2E",
"i.	c #ABABAB",
"j.	c #878787",
"k.	c #353535",
"l.	c #656565",
"m.	c #6E6E6E",
"n.	c #6F6F6F",
"o.	c #C1C1C1",
"p.	c #C8C8C8",
"q.	c #515151",
"r.	c #3A3A3A",
"s.	c #393939",
"t.	c #C3C3C3",
"u.	c #C2C2C2",
"v.	c #8E8E8E",
"w.	c #4C4C4C",
"x.	c #767676",
"y.	c #ADADAD",
"z.	c #5E5E5E",
"A.	c #848484",
"B.	c #6A6A6A",
"C.	c #6B6B6B",
"D.	c #D5D5D5",
"E.	c #D4D4D4",
"F.	c #D1D1D1",
"G.	c #D6D6D6",
"H.	c #DFDFDF",
"I.	c #DDDDDD",
"J.	c #D3D3D3",
"K.	c #D0D0D0",
"L.	c #C6C6C6",
"M.	c #585858",
"N.	c #212121",
"O.	c #575757",
"P.	c #202020",
"Q.	c #262626",
"R.	c #292929",
"S.	c #CECECE",
"T.	c #6C6C6C",
"  . . . . + @ # $ @ $ # @ % & * = - = ; > , ' ) ) ) ! ~ ~ ~ ~ . ",
"+ { { ] ^ / ( _ : < ( [ } | { 1 2 - 3 = 4 5 6 7 8 7 9 0 a b c b ",
"d e f g . h i f @ j @ k l ~ m k n 9 k ; o p ] q r s t i u v 7 r ",
"w x = y z r 8 - A = B C D ~ ) 4 2 C E D F G ] < 9 H = E E 2 C n ",
"- E { I J K } $ L K H L M N O P Q R ! S T U o V - D E B n E x W ",
"X Y   G Z `  .C ..K C W * +.@.    | #.$.#.N Q %.&.*.{ =.-.;.>.>.",
"Z Z T ,.'.).t - D L E H !.I Z > u ~.d {...].^.X /.(.) '.p Z Z T ",
"P ) R R , N _.9 :.l H :.$.<.T &.( 3 C E [.p , }.I O ~   |.(.(.  ",
"1.1.2.k y ) &._.l B 3.l $.;.4.3. .9 3 n > p > t B -.h 1 u 1 u u ",
"5.6.x 7.8.S 9.3 &.0 { ] 0.  a.b.2 $.-.<.c.p A d.e.$.~.2.%.w A %.",
"x n - &.c.z ^ }.(.F z J f.g.a.;.;.! h.@.g.p 1.i.e.% s 9 3 - j.K ",
"E *.L ..(.k.B @ L $.8.z l.3.l %.u } i n c.| ~.k 9.m.r L C = g H ",
"C 3 W n.! ~ o.2 A n #.+.v ( 8 h d.r h H ! a p.C +.;.l g % + &.B ",
"o ).q.'.G . i $ # K +.N _ 5.:.C K l L $.r.> < n ^.. O s.s., ~ N ",
"|.;.> m.` & o.W 6.D +.~ t.6.B &.* H l [.r.> < 2 (.}.^ ^ |.~ r.p ",
"3.< :  .i.9.u.9 !.n >.].1.1.l W $.B - ` p c 1 = ^.C 1.7 j _.v.w.",
"%.2.n x 3 l._ - $ 3 -.h.L ~.$ L H *.- 0.p x.i -   _.x x x x M (.",
"y.j 3 $ = Q _ 9 l 6.z.J ] ~.2 K W = l Q J x.s H . C 5.5.l 9 A.~ ",
"i.w k 6.- +.: = L L Y 4.q.v 9 &.g { 0.) G 9.c (.! ` $.*.$.c ` S ",
"i.@ 6.9 = w.s 9 2 E m g.) m Y ! h.J T T p w.^ }.+.I ' '.'.'.O '.",
"y.%.n 6.H ^.r x !.3 m g., | 6 6 y B.B.C.a $.L k A A k 5.$ # ; |.",
"5.w x $ + h.2.2 L W Y G ,.5.( D.D.V E.F.G.H.H.I.J.G.K.D.p._ #.].",
"= # :.b.C.p $ x - L Y @.f.x L.y.i./ d.2.y.h / E 3 5.B x $ n 0.z ",
"+ K % M.) '...n E A.m @.N.K K.x l K H 3 L # B W l W W W l L l.'.",
"^ ! S R s.' Q O.).& |.,.P.+ < C n = K ; ; K 3 E K v.H 7.l b.| p ",
"9.* &.x.}.N ].Q.R.R.g.R.R.>.n.9.>.9.M H * [.A.g !.7.* 3.A.* -.p ",
"* _ d S.L.s B 7.* *.a C.0.-.<.c.) ].s.^.I |.|.|.^.. . . . ~ O , ",
"3.t 5.9 5.d. .e 1 [  .8 i e } 1.B.P (.^ R '.O O O k.O k.k.O F w.",
"j.7 2 ; C = n H &.B !.E :.9 %.v.c.) C [ 8 A x.Q :.5._.$ - g 0.+.",
"#.T.Q & ).Q ).Q Q <.Q ).).Q O.q.! J L d.y.k 0 *.2.A _.x $ 6.6.^.",
"P U Z T T 4.R.R.T g.R.R.g.R.R.g.T T P }.+.N w.M g M g *.$.$.X ~ ",
"I ^.R R ) ) , , , r., , r., , r., , R |.R r.r.R ].p p p p p p F "};
